PathFileType	4	(X/Y/Z)	D:\TRACE\v60_Jaco2_6-2-23\JustArmDRS_Motion3_4-platform.trc
DataRate	CameraRate	NumFrames	NumMarkers	Units	OrigDataRate	OrigDataStartFrame	OrigNumFrames
100.00	100.00	      54	5	mm	100.00	876	      7000
Frame#	Time	Left_Front			Right_Front			Left_Aft			Right_Aft			Post			
		X1	Y1	Z1	X2	Y2	Z2	X3	Y3	Z3	X4	Y4	Z4	X5	Y5	Z5	

876	8.750	-769.48376	-15.16358	-656.32465	801.15399	-16.29273	-633.50189	-700.79712	27.52642	476.88153	713.76575	28.44008	582.82605	27.22352	1270.23303	-1016.49945	
877	8.760	-769.43280	-15.02579	-656.29907	801.28247	-16.12618	-633.42590	-700.70605	27.39324	476.97464	713.85242	28.31738	582.88007	27.16609	1270.34216	-1016.31171	
878	8.770	-769.31470	-14.92438	-656.27521	801.32831	-16.03370	-633.41254	-700.64740	27.28903	477.04474	714.26239	28.17793	582.80133	27.22918	1270.48169	-1016.02710	
879	8.780	-769.25262	-14.76120	-656.16370	801.41901	-15.96634	-633.38879	-700.55652	27.19624	477.14487	714.50116	28.15618	582.78015	27.18404	1270.67004	-1015.87878	
880	8.790	-769.01672	-14.56359	-656.08478	801.57916	-15.85924	-633.38751	-700.47034	27.10868	477.17938	714.61768	28.11471	582.86145	27.29895	1270.89685	-1015.55121	
881	8.800	-768.77521	-14.36799	-655.91095	801.74292	-15.73951	-633.38727	-700.25977	26.99408	477.20383	714.87457	28.12879	582.91913	27.56070	1271.09961	-1015.22955	
882	8.810	-768.45447	-14.26224	-655.99768	801.89575	-15.67648	-633.39734	-700.03851	26.92238	477.26688	715.06433	28.08280	582.92529	27.91125	1271.35486	-1014.72839	
883	8.820	-768.38794	-14.33770	-656.07526	802.07922	-15.58078	-633.38086	-699.79034	26.89843	477.31094	715.22070	27.99672	582.90637	28.19730	1271.63806	-1014.31708	
884	8.830	-767.96490	-14.24028	-656.00708	802.25305	-15.49999	-633.36835	-699.53833	26.84548	477.26767	715.57892	28.02778	582.86761	27.99599	1271.65137	-1013.98413	
885	8.840	-767.77631	-14.14488	-655.96429	802.38177	-15.41199	-633.36023	-699.44269	26.83597	477.31082	715.72156	28.00700	582.87994	28.10352	1271.77002	-1013.80377	
886	8.850	-767.53265	-14.08808	-655.97308	802.68695	-15.58444	-633.72046	-699.31891	26.82424	477.31943	715.48322	27.63993	582.83716	28.44870	1272.09827	-1013.95050	
887	8.860	-767.45215	-14.03432	-655.99323	802.74713	-15.29789	-633.24768	-699.15460	26.77098	477.33694	715.98907	27.89683	582.91254	28.61500	1272.25549	-1013.87970	
888	8.870	-767.31885	-13.99177	-656.03894	802.90533	-15.23323	-633.25616	-698.84796	26.75465	477.35373	715.95410	27.36955	582.72113	28.78081	1272.30981	-1013.79907	
889	8.880	-767.02911	-13.86794	-655.97955	803.05481	-15.16257	-633.25336	-698.64294	26.65980	477.41736	716.26416	27.43788	582.95825	29.14986	1272.30115	-1013.66626	
890	8.890	-766.78198	-13.76370	-655.88666	803.42633	-15.09697	-633.19531	-698.29163	26.58607	477.42206	716.55627	27.26519	582.85870	29.43487	1272.30261	-1013.57147	
891	8.900	-766.51752	-13.70168	-655.81366	803.78052	-14.99600	-633.19830	-698.08746	26.52622	477.49051	716.85913	27.40941	583.08234	29.69736	1272.30823	-1013.53900	
892	8.910	-766.36462	-13.67610	-655.78687	804.02869	-14.88755	-633.15076	-697.84656	26.55513	477.50125	717.05634	27.31484	583.07385	29.98832	1272.37463	-1013.50812	
893	8.920	-766.22150	-13.60601	-655.84949	804.20886	-14.77988	-633.12292	-697.65979	26.50641	477.55597	717.23615	27.14091	582.94397	30.14805	1272.47278	-1013.35297	
894	8.930	-765.60437	-13.52399	-655.53638	804.34161	-14.74461	-633.12354	-697.39697	26.54593	477.63266	717.34753	27.20134	583.04211	30.34276	1272.61047	-1013.13409	
895	8.940	-765.30902	-13.60879	-655.61566	804.65601	-14.72823	-633.15100	-697.19434	26.57038	477.68500	717.65070	27.25963	583.06360	30.20292	1272.68530	-1012.71063	
896	8.950	-765.44128	-13.99962	-656.59814	804.94434	-14.78459	-633.11908	-696.90717	26.47531	477.74097	717.88190	27.29551	583.03046	30.65104	1272.90906	-1012.79492	
897	8.960	-765.17694	-13.98464	-656.45789	805.21576	-14.75799	-633.11438	-696.60846	26.40787	477.78186	718.07764	27.25778	583.15894	30.60447	1272.75012	-1012.45178	
898	8.970	-764.94519	-13.92288	-656.25775	805.52173	-14.77486	-633.06860	-696.38330	26.35833	477.72656	718.43976	27.27661	583.18561	31.02795	1272.75818	-1012.41406	
899	8.980	-764.60217	-13.61002	-655.90485	805.77136	-14.73454	-633.04919	-696.22217	26.32985	477.63657	718.60864	27.25022	583.23065	31.27812	1272.78601	-1012.40015	
900	8.990	-764.35437	-13.57259	-655.79944	805.99261	-14.68941	-633.01025	-696.01764	26.29082	477.58731	719.05542	27.18893	583.06171	31.63018	1273.00085	-1012.51587	
901	9.000	-764.12891	-13.58628	-655.69617	806.26898	-14.64503	-633.01398	-695.73865	26.31475	477.59146	719.37543	27.20792	583.17963	31.91804	1272.99915	-1012.57947	
902	9.010	-763.93323	-13.62778	-655.66217	806.51782	-14.65855	-632.99609	-695.48627	26.37843	477.55560	719.67419	27.10999	583.19312	32.30915	1273.02209	-1012.72430	
903	9.020	-763.65631	-13.58170	-655.61011	806.82123	-14.61589	-633.01459	-695.13293	26.40622	477.56012	719.79956	27.06420	583.02802	32.64650	1273.09888	-1012.81195	
904	9.030	-763.35236	-13.45962	-655.50598	807.04535	-14.57158	-632.99640	-694.88544	26.43288	477.56503	720.07910	27.10608	583.09747	32.97376	1273.12659	-1012.93036	
905	9.040	-763.04517	-13.46252	-655.48102	807.26251	-14.54834	-633.04034	-694.66217	26.48046	477.53644	720.31946	27.11897	583.09912	33.20743	1273.14880	-1012.93011	
906	9.050	-762.79584	-13.48865	-655.50208	807.50055	-14.54780	-633.11969	-694.33069	26.42703	477.55661	720.59912	27.06629	583.03009	33.45113	1273.14380	-1012.93878	
907	9.060	-762.57581	-13.48154	-655.58307	807.72430	-14.54265	-633.14984	-694.09229	26.37891	477.61179	720.86560	27.12619	583.16833	33.72042	1273.15686	-1012.83490	
908	9.070	-761.90759	-13.55196	-655.26508	807.90277	-14.55231	-633.11725	-693.86597	26.31023	477.60052	721.01831	27.08182	583.15155	33.93802	1273.11145	-1012.67120	
909	9.080	-761.68170	-13.59441	-655.33496	808.09271	-14.54541	-633.10895	-693.76050	26.38287	477.57446	721.20386	27.08654	583.11200	34.03846	1273.15051	-1012.55829	
910	9.090	-761.87103	-13.55010	-655.91766	808.39081	-14.53151	-633.08118	-693.54700	26.40938	477.64569	721.46545	27.10065	583.15009	34.20077	1273.14868	-1012.49329	
911	9.100	-761.59735	-13.57006	-655.89960	808.58447	-14.51547	-633.08484	-693.22919	26.32846	477.53516	721.66376	27.14864	583.15643	34.38973	1273.16272	-1012.40186	
912	9.110	-761.33264	-13.53738	-655.81909	808.88971	-14.55446	-633.07892	-692.87903	26.32100	477.52023	721.86420	27.06998	583.08380	34.77794	1273.22888	-1012.39514	
913	9.120	-761.09894	-13.50446	-655.74426	809.19873	-14.58251	-633.06824	-692.63574	26.33704	477.54419	722.12561	26.92918	583.03290	35.10863	1273.24463	-1012.39026	
914	9.130	-760.80603	-13.45670	-655.65442	809.50873	-14.56159	-632.99969	-692.43939	26.30036	477.58896	722.42615	26.83902	583.09430	35.40086	1273.22913	-1012.35876	
915	9.140	-760.48541	-13.51146	-655.67694	809.73059	-14.57799	-632.95923	-692.19806	26.29869	477.60315	722.64136	26.79351	583.18677	35.59935	1273.22668	-1012.36096	
916	9.150	-760.18372	-13.55277	-655.60455	809.93280	-14.47653	-632.94891	-691.89441	26.31044	477.63867	722.97662	26.76111	583.21210	35.87039	1273.21362	-1012.40094	
917	9.160	-760.01221	-13.56782	-655.67859	810.06628	-14.42145	-632.97394	-691.68201	26.25855	477.62885	723.19513	26.77720	583.22546	35.99020	1273.22937	-1012.48981	
918	9.170	-759.90448	-13.55847	-655.74048	810.58752	-14.54739	-633.32428	-691.49487	26.23948	477.65543	723.40106	26.80670	583.29730	36.18983	1273.18921	-1012.58875	
919	9.180	-759.70520	-13.55022	-655.72815	810.79730	-14.52242	-633.30719	-691.22986	26.20997	477.70468	723.62994	26.84567	583.32147	36.49390	1273.17981	-1012.62122	
920	9.190	-759.40009	-13.57798	-655.66882	811.09930	-14.56596	-633.33899	-690.93427	26.22627	477.78885	723.85950	26.86016	583.32623	36.81250	1273.17871	-1012.53339	
921	9.200	-759.14624	-13.51492	-655.67072	811.36938	-14.61097	-633.30865	-690.76349	26.20756	477.76593	724.14606	26.74049	583.23523	37.08207	1273.17249	-1012.41559	
922	9.210	-758.93311	-13.49130	-655.70178	811.43280	-14.47080	-633.01666	-690.51855	26.25787	477.78412	724.44220	26.75388	583.31183	37.27089	1273.17163	-1012.32306	
923	9.220	-758.77820	-13.47108	-655.69757	811.59967	-14.46755	-633.03497	-690.43951	26.30860	477.75620	724.66681	27.16603	583.19427	37.47119	1273.17871	-1012.26208	
924	9.230	-758.67993	-13.38446	-655.67181	811.74695	-14.45025	-632.98816	-690.31866	26.27557	477.74741	724.76331	27.18290	583.13354	37.50133	1273.19824	-1012.24310	
925	9.240	-758.57538	-13.38552	-655.75531	811.87463	-14.47926	-632.96484	-690.21472	26.26142	477.76340	724.88696	27.15616	583.17352	37.54764	1273.22424	-1012.23291	
926	9.250	-758.07990	-13.34503	-655.32806	812.03320	-14.44012	-632.92194	-690.02087	26.26222	477.80942	725.03680	27.15608	583.18823	37.72178	1273.26697	-1012.15839	
927	9.260	-757.97131	-13.29387	-655.37213	812.17273	-14.35434	-632.90094	-689.72998	26.18891	477.81149	724.96429	26.89156	582.73029	37.94010	1273.27759	-1012.16461	
928	9.270	-758.17578	-13.20656	-655.76514	812.31775	-14.32580	-632.85095	-689.58911	26.13239	477.76245	725.24713	27.08099	583.20801	38.11902	1273.30579	-1012.21930	
929	9.280	-757.95630	-13.11257	-655.75122	812.48224	-14.30000	-632.86829	-689.43652	26.11682	477.74829	725.42438	26.99026	583.37048	38.25648	1273.30872	-1012.25714	
